<svg width="12" height="12" viewBox="0 0 12 12" fill="none" xmlns="http://www.w3.org/2000/svg">
<path d="M11.9807 8.88141C11.9652 8.83469 11.9406 8.79149 11.9083 8.75428C11.876 8.71707 11.8367 8.68659 11.7927 8.66456C11.7486 8.64254 11.7007 8.62941 11.6516 8.62592C11.6024 8.62243 11.5531 8.62865 11.5064 8.64423L10.6898 8.91657L9.33512 6.20719C9.30398 6.14496 9.25614 6.09262 9.19695 6.05603C9.13776 6.01944 9.06956 6.00004 8.99997 6.00001H5.24997V4.87501H7.87497C7.97442 4.87501 8.06981 4.8355 8.14013 4.76517C8.21046 4.69484 8.24997 4.59946 8.24997 4.50001C8.24997 4.40055 8.21046 4.30517 8.14013 4.23484C8.06981 4.16452 7.97442 4.12501 7.87497 4.12501H5.24997V3.70313C5.60347 3.61186 5.91154 3.3948 6.11644 3.09263C6.32135 2.79046 6.40902 2.42394 6.36301 2.06176C6.31701 1.69958 6.1405 1.36661 5.86656 1.12526C5.59262 0.883915 5.24006 0.750763 4.87497 0.750763C4.50988 0.750763 4.15732 0.883915 3.88338 1.12526C3.60944 1.36661 3.43293 1.69958 3.38692 2.06176C3.34092 2.42394 3.42859 2.79046 3.63349 3.09263C3.8384 3.3948 4.14647 3.61186 4.49997 3.70313V4.20985C3.6914 4.39465 2.9792 4.87073 2.49929 5.5472C2.01939 6.22368 1.80538 7.05318 1.89813 7.8774C1.99087 8.70161 2.38387 9.46282 3.00212 10.0157C3.62036 10.5686 4.42055 10.8745 5.24997 10.875C6.82122 10.875 8.23544 9.81048 8.61325 8.34376C8.62556 8.29605 8.62835 8.24638 8.62147 8.1976C8.61459 8.14881 8.59817 8.10186 8.57314 8.05942C8.54811 8.01698 8.51497 7.97989 8.4756 7.95025C8.43624 7.92062 8.39142 7.89904 8.34372 7.88672C8.29601 7.87441 8.24635 7.87162 8.19756 7.8785C8.14877 7.88538 8.10182 7.90181 8.05938 7.92684C8.01694 7.95186 7.97985 7.98501 7.95022 8.02437C7.92059 8.06374 7.899 8.10855 7.88669 8.15626C7.59794 9.28126 6.4645 10.125 5.24997 10.125C4.61959 10.1248 4.01034 9.89774 3.53358 9.48535C3.05681 9.07296 2.74437 8.50277 2.65336 7.879C2.56234 7.25522 2.69884 6.61953 3.0379 6.08811C3.37696 5.55668 3.89593 5.16501 4.49997 4.98469V6.37501C4.49997 6.47446 4.53948 6.56985 4.6098 6.64017C4.68013 6.7105 4.77551 6.75001 4.87497 6.75001H8.76794L10.1643 9.54282C10.2048 9.62351 10.273 9.68689 10.3565 9.72133C10.4399 9.75578 10.533 9.75897 10.6186 9.73032L11.7436 9.35532C11.8378 9.32387 11.9157 9.25629 11.9602 9.16744C12.0047 9.07858 12.0121 8.97571 11.9807 8.88141ZM4.12497 2.25001C4.12497 2.10167 4.16896 1.95667 4.25137 1.83333C4.33378 1.70999 4.45091 1.61386 4.58796 1.5571C4.725 1.50033 4.8758 1.48548 5.02129 1.51442C5.16677 1.54336 5.30041 1.61479 5.4053 1.71968C5.51019 1.82457 5.58162 1.9582 5.61056 2.10369C5.6395 2.24917 5.62464 2.39997 5.56788 2.53702C5.51111 2.67406 5.41498 2.7912 5.29165 2.87361C5.16831 2.95602 5.0233 3.00001 4.87497 3.00001C4.67606 3.00001 4.48529 2.92099 4.34464 2.78034C4.20399 2.63968 4.12497 2.44892 4.12497 2.25001Z" fill="#708D81"/>
</svg>
