<svg width="16" height="16" viewBox="0 0 16 16" fill="none" xmlns="http://www.w3.org/2000/svg">
<path d="M10.6667 2.66666C10.6667 1.92666 11.26 1.33333 12 1.33333C12.74 1.33333 13.3334 1.92666 13.3334 2.66666C13.3334 3.40666 12.74 3.99999 12 3.99999C11.26 3.99999 10.6667 3.40666 10.6667 2.66666ZM13.3334 14.6667V10.6667H15L13.3067 5.57999C13.12 5.03333 12.6134 4.66666 12.04 4.66666H11.96C11.3867 4.66666 10.8734 5.03333 10.6934 5.57999L10.12 7.29999C10.84 7.69999 11.3334 8.45333 11.3334 9.33333V14.6667H13.3334ZM8.33337 7.66666C8.88671 7.66666 9.33337 7.21999 9.33337 6.66666C9.33337 6.11333 8.88671 5.66666 8.33337 5.66666C7.78004 5.66666 7.33337 6.11333 7.33337 6.66666C7.33337 7.21999 7.78004 7.66666 8.33337 7.66666ZM3.66671 3.99999C4.40671 3.99999 5.00004 3.40666 5.00004 2.66666C5.00004 1.92666 4.40671 1.33333 3.66671 1.33333C2.92671 1.33333 2.33337 1.92666 2.33337 2.66666C2.33337 3.40666 2.92671 3.99999 3.66671 3.99999ZM5.00004 14.6667V9.99999H6.00004V5.99999C6.00004 5.26666 5.40004 4.66666 4.66671 4.66666H2.66671C1.93337 4.66666 1.33337 5.26666 1.33337 5.99999V9.99999H2.33337V14.6667H5.00004ZM9.33337 14.6667V12H10V9.33333C10 8.78666 9.54671 8.33333 9.00004 8.33333H7.66671C7.12004 8.33333 6.66671 8.78666 6.66671 9.33333V12H7.33337V14.6667H9.33337Z" fill="white"/>
</svg>
