<svg width="12" height="13" viewBox="0 0 12 13" fill="none" xmlns="http://www.w3.org/2000/svg">
<g clip-path="url(#clip0_60_90)">
<path d="M9.03 12.0226H9.86C10.28 12.0226 10.625 11.7026 10.675 11.2926L11.5 3.05259H9V1.02759H8.015V3.05259H5.53L5.68 4.22259C6.535 4.45759 7.335 4.88259 7.815 5.35259C8.535 6.06259 9.03 6.79759 9.03 7.99759V12.0226ZM0.5 11.5226V11.0276H8.015V11.5226C8.015 11.7976 7.79 12.0226 7.51 12.0226H1.005C0.725 12.0226 0.5 11.7976 0.5 11.5226ZM8.015 8.02259C8.015 4.02259 0.5 4.02259 0.5 8.02259H8.015ZM0.51 9.02759H8.01V10.0276H0.51V9.02759Z" fill="#708D81"/>
</g>
<defs>
<clipPath id="clip0_60_90">
<rect width="12" height="12" fill="white" transform="translate(0 0.527588)"/>
</clipPath>
</defs>
</svg>
