<svg width="117" height="40" viewBox="0 0 117 40" fill="none" xmlns="http://www.w3.org/2000/svg">
<path d="M40.24 36.71C40.24 37.4003 39.6803 37.96 38.99 37.96C38.2996 37.96 37.74 37.4003 37.74 36.71C37.74 36.0196 38.2996 35.46 38.99 35.46C39.6803 35.46 40.24 36.0196 40.24 36.71Z" stroke="#780000"/>
<mask id="mask0_78_76" style="mask-type:luminance" maskUnits="userSpaceOnUse" x="33" y="20" width="12" height="16">
<path d="M38.92 34.12C38.92 34.12 43.12 30.34 43.12 26.245C43.12 23.6355 41.2395 21.52 38.92 21.52C36.6005 21.52 34.72 23.6355 34.72 26.245C34.72 30.34 38.92 34.12 38.92 34.12Z" fill="white" stroke="white" stroke-width="2" stroke-linejoin="round"/>
<path d="M39 26C39.1313 26 39.2614 25.9741 39.3827 25.9239C39.504 25.8736 39.6142 25.8 39.7071 25.7071C39.8 25.6142 39.8736 25.504 39.9239 25.3827C39.9741 25.2614 40 25.1313 40 25C40 24.8687 39.9741 24.7386 39.9239 24.6173C39.8736 24.496 39.8 24.3858 39.7071 24.2929C39.6142 24.2 39.504 24.1264 39.3827 24.0761C39.2614 24.0259 39.1313 24 39 24C38.7348 24 38.4804 24.1054 38.2929 24.2929C38.1054 24.4804 38 24.7348 38 25C38 25.2652 38.1054 25.5196 38.2929 25.7071C38.4804 25.8946 38.7348 26 39 26Z" fill="black" stroke="black" stroke-width="4" stroke-linejoin="round"/>
</mask>
<g mask="url(#mask0_78_76)">
<path d="M29.9884 19.3237H46.2634V35.5987H29.9884V19.3237Z" fill="#780000"/>
</g>
<path d="M13.4533 20.3967C13.4533 21.1791 12.8191 21.8133 12.0367 21.8133C11.2543 21.8133 10.62 21.1791 10.62 20.3967C10.62 19.6143 11.2543 18.98 12.0367 18.98C12.8191 18.98 13.4533 19.6143 13.4533 20.3967Z" stroke="#780000"/>
<mask id="mask1_78_76" style="mask-type:luminance" maskUnits="userSpaceOnUse" x="6" y="2" width="12" height="17">
<path d="M11.96 17.56C11.96 17.56 16.56 13.42 16.56 8.93501C16.56 6.07703 14.5004 3.76001 11.96 3.76001C9.41956 3.76001 7.35999 6.07703 7.35999 8.93501C7.35999 13.42 11.96 17.56 11.96 17.56Z" fill="white" stroke="white" stroke-width="2" stroke-linejoin="round"/>
<path d="M12 9C12.1313 9 12.2614 8.97413 12.3827 8.92388C12.504 8.87362 12.6142 8.79997 12.7071 8.70711C12.8 8.61425 12.8736 8.50401 12.9239 8.38268C12.9741 8.26136 13 8.13132 13 8C13 7.86868 12.9741 7.73864 12.9239 7.61732C12.8736 7.49599 12.8 7.38575 12.7071 7.29289C12.6142 7.20003 12.504 7.12638 12.3827 7.07612C12.2614 7.02587 12.1313 7 12 7C11.7348 7 11.4804 7.10536 11.2929 7.29289C11.1054 7.48043 11 7.73478 11 8C11 8.26522 11.1054 8.51957 11.2929 8.70711C11.4804 8.89464 11.7348 9 12 9Z" fill="black" stroke="black" stroke-width="4" stroke-linejoin="round"/>
</mask>
<g mask="url(#mask1_78_76)">
<path d="M2.17786 1.35458H20.0029V19.1796H2.17786V1.35458Z" fill="#780000"/>
</g>
<path d="M13.5 20.5L23 18.5L38 37.5" stroke="#780000"/>
<path d="M57.4688 13.5918C57.4688 13.1426 57.3906 12.7422 57.2344 12.3906C57.0781 12.0391 56.8275 11.7233 56.4824 11.4434C56.1374 11.1634 55.6849 10.9062 55.125 10.6719C54.5716 10.4375 53.8913 10.2096 53.084 9.98828C52.3613 9.79297 51.7103 9.58464 51.1309 9.36328C50.5514 9.13542 50.0566 8.875 49.6465 8.58203C49.2428 8.28906 48.9336 7.94076 48.7188 7.53711C48.5039 7.12695 48.3965 6.63542 48.3965 6.0625C48.3965 5.52214 48.5137 5.03711 48.748 4.60742C48.9889 4.17773 49.321 3.81315 49.7441 3.51367C50.1738 3.21419 50.6751 2.98633 51.248 2.83008C51.821 2.66732 52.4427 2.58594 53.1133 2.58594C54.0378 2.58594 54.8548 2.76172 55.5645 3.11328C56.2741 3.46484 56.8307 3.95638 57.2344 4.58789C57.6445 5.21289 57.8496 5.94531 57.8496 6.78516H57.3223C57.3223 6.08203 57.1465 5.45378 56.7949 4.90039C56.4434 4.34701 55.9518 3.91081 55.3203 3.5918C54.6953 3.27279 53.9596 3.11328 53.1133 3.11328C52.2214 3.11328 51.4629 3.25 50.8379 3.52344C50.2129 3.79688 49.7376 4.1582 49.4121 4.60742C49.0866 5.05013 48.9238 5.52865 48.9238 6.04297C48.9238 6.42057 48.9889 6.77214 49.1191 7.09766C49.2559 7.42318 49.4837 7.72591 49.8027 8.00586C50.1217 8.2793 50.5612 8.53971 51.1211 8.78711C51.681 9.02799 52.3841 9.25911 53.2305 9.48047C53.9336 9.66276 54.5749 9.86784 55.1543 10.0957C55.7402 10.3236 56.2448 10.5938 56.668 10.9062C57.0977 11.2188 57.4264 11.5931 57.6543 12.0293C57.8887 12.459 58.0059 12.9733 58.0059 13.5723C58.0059 14.1517 57.8789 14.666 57.625 15.1152C57.3776 15.5645 57.0326 15.9453 56.5898 16.2578C56.1471 16.5638 55.6328 16.7982 55.0469 16.9609C54.4674 17.1172 53.8457 17.1953 53.1816 17.1953C52.5762 17.1953 51.9642 17.1237 51.3457 16.9805C50.7272 16.8372 50.1608 16.6061 49.6465 16.2871C49.1322 15.9616 48.7188 15.5286 48.4062 14.9883C48.0938 14.4479 47.9375 13.7806 47.9375 12.9863H48.4648C48.4648 13.696 48.6113 14.2884 48.9043 14.7637C49.1973 15.2389 49.5781 15.6165 50.0469 15.8965C50.5221 16.1699 51.0332 16.3685 51.5801 16.4922C52.1335 16.6094 52.6673 16.668 53.1816 16.668C54.015 16.668 54.7539 16.5378 55.3984 16.2773C56.043 16.0169 56.5475 15.6556 56.9121 15.1934C57.2832 14.7311 57.4688 14.1973 57.4688 13.5918ZM65.0762 2.78125V17H64.5488V2.78125H65.0762ZM70.252 2.78125V3.30859H59.373V2.78125H70.252ZM81.3945 16.4727V17H72.9277V16.4727H81.3945ZM73.2695 2.78125V17H72.7422V2.78125H73.2695ZM80.3984 9.42188V9.94922H72.9277V9.42188H80.3984ZM81.3945 2.78125V3.30859H72.9277V2.78125H81.3945ZM88.5723 10.9941H84.2559V10.4668H88.5723C89.5293 10.4668 90.3073 10.3105 90.9062 9.99805C91.5052 9.67904 91.9414 9.2526 92.2148 8.71875C92.4948 8.1849 92.6348 7.5957 92.6348 6.95117C92.6348 6.2806 92.4948 5.67188 92.2148 5.125C91.9414 4.57161 91.5052 4.13216 90.9062 3.80664C90.3073 3.47461 89.5293 3.30859 88.5723 3.30859H84.6562V17H84.1289V2.78125H88.5723C89.5814 2.78125 90.4245 2.95378 91.1016 3.29883C91.7852 3.64388 92.2995 4.12891 92.6445 4.75391C92.9896 5.3724 93.1621 6.09831 93.1621 6.93164C93.1621 7.76497 92.9896 8.48763 92.6445 9.09961C92.306 9.70508 91.7949 10.1738 91.1113 10.5059C90.4342 10.8314 89.5879 10.9941 88.5723 10.9941ZM53.2402 22.7812V37H52.7129V22.7812H53.2402ZM58.416 22.7812V23.3086H47.5371V22.7812H58.416ZM60.8574 22.7812H65.3887C66.2936 22.7812 67.0977 22.9408 67.8008 23.2598C68.5039 23.5723 69.054 24.0345 69.4512 24.6465C69.8548 25.252 70.0566 25.9974 70.0566 26.8828C70.0566 27.5729 69.9069 28.1979 69.6074 28.7578C69.3079 29.3112 68.9076 29.7669 68.4062 30.125C67.9049 30.4831 67.3451 30.7077 66.7266 30.7988L66.4238 30.916H60.9844L60.9648 30.3887H65.8672C66.681 30.3887 67.3581 30.2194 67.8984 29.8809C68.4388 29.5423 68.8457 29.1061 69.1191 28.5723C69.3926 28.0319 69.5293 27.4688 69.5293 26.8828C69.5293 26.1341 69.36 25.4961 69.0215 24.9688C68.6829 24.4349 68.2012 24.0247 67.5762 23.7383C66.9577 23.4518 66.2285 23.3086 65.3887 23.3086H61.3848V37H60.8574V22.7812ZM70.0957 37L66.1992 30.7305L66.8145 30.7109L70.6523 36.8633V37H70.0957ZM78.0742 23.2305L72.9375 37H72.3613L77.6836 22.7812H78.1914L78.0742 23.2305ZM83.0742 37L77.9375 23.2305L77.8301 22.7812H78.3281L83.6504 37H83.0742ZM81.5703 32.2246V32.752H74.4512V32.2246H81.5703ZM89.3926 35.6133L94.168 22.7812H94.7441L89.4316 37H88.9336L89.3926 35.6133ZM84.0508 22.7812L88.8262 35.6133L89.2852 37H88.7871L83.4746 22.7812H84.0508ZM105.691 36.4727V37H97.2246V36.4727H105.691ZM97.5664 22.7812V37H97.0391V22.7812H97.5664ZM104.695 29.4219V29.9492H97.2246V29.4219H104.695ZM105.691 22.7812V23.3086H97.2246V22.7812H105.691ZM116.258 36.4727V37H108.621V36.4727H116.258ZM108.963 22.7812V37H108.426V22.7812H108.963Z" fill="black"/>
</svg>
