<svg width="12" height="13" viewBox="0 0 12 13" fill="none" xmlns="http://www.w3.org/2000/svg">
<g clip-path="url(#clip0_60_85)">
<path d="M8.25 7.00549C7.65 7.00549 6.715 7.17549 6 7.50549C5.285 7.17049 4.35 7.00549 3.75 7.00549C2.665 7.00549 0.5 7.54549 0.5 8.63049V10.0055H11.5V8.63049C11.5 7.54549 9.335 7.00549 8.25 7.00549ZM6.25 9.25549H1.25V8.63049C1.25 8.36049 2.53 7.75549 3.75 7.75549C4.97 7.75549 6.25 8.36049 6.25 8.63049V9.25549ZM10.75 9.25549H7V8.63049C7 8.40049 6.9 8.20049 6.74 8.02049C7.18 7.87049 7.72 7.75549 8.25 7.75549C9.47 7.75549 10.75 8.36049 10.75 8.63049V9.25549ZM3.75 6.50549C4.715 6.50549 5.5 5.72049 5.5 4.75549C5.5 3.79049 4.715 3.00549 3.75 3.00549C2.785 3.00549 2 3.79049 2 4.75549C2 5.72049 2.785 6.50549 3.75 6.50549ZM3.75 3.75549C4.3 3.75549 4.75 4.20549 4.75 4.75549C4.75 5.30549 4.3 5.75549 3.75 5.75549C3.2 5.75549 2.75 5.30549 2.75 4.75549C2.75 4.20549 3.2 3.75549 3.75 3.75549ZM8.25 6.50549C9.215 6.50549 10 5.72049 10 4.75549C10 3.79049 9.215 3.00549 8.25 3.00549C7.285 3.00549 6.5 3.79049 6.5 4.75549C6.5 5.72049 7.285 6.50549 8.25 6.50549ZM8.25 3.75549C8.8 3.75549 9.25 4.20549 9.25 4.75549C9.25 5.30549 8.8 5.75549 8.25 5.75549C7.7 5.75549 7.25 5.30549 7.25 4.75549C7.25 4.20549 7.7 3.75549 8.25 3.75549Z" fill="#708D81"/>
</g>
<defs>
<clipPath id="clip0_60_85">
<rect width="12" height="12" fill="white" transform="translate(0 0.505493)"/>
</clipPath>
</defs>
</svg>
