<svg width="20" height="20" viewBox="0 0 20 20" fill="none" xmlns="http://www.w3.org/2000/svg">
<path d="M15.8334 3.33334H4.16675C3.50371 3.33334 2.86782 3.59673 2.39898 4.06557C1.93014 4.53442 1.66675 5.1703 1.66675 5.83334V14.1667C1.66675 14.8297 1.93014 15.4656 2.39898 15.9344C2.86782 16.4033 3.50371 16.6667 4.16675 16.6667H15.8334C16.4965 16.6667 17.1323 16.4033 17.6012 15.9344C18.07 15.4656 18.3334 14.8297 18.3334 14.1667V5.83334C18.3334 5.1703 18.07 4.53442 17.6012 4.06557C17.1323 3.59673 16.4965 3.33334 15.8334 3.33334ZM15.2751 5.00001L10.0001 8.95834L4.72508 5.00001H15.2751ZM15.8334 15H4.16675C3.94573 15 3.73377 14.9122 3.57749 14.7559C3.42121 14.5996 3.33341 14.3877 3.33341 14.1667V6.04167L9.50008 10.6667C9.64433 10.7749 9.81977 10.8333 10.0001 10.8333C10.1804 10.8333 10.3558 10.7749 10.5001 10.6667L16.6667 6.04167V14.1667C16.6667 14.3877 16.579 14.5996 16.4227 14.7559C16.2664 14.9122 16.0544 15 15.8334 15Z" fill="white"/>
</svg>
