<svg width="20" height="20" viewBox="0 0 20 20" fill="none" xmlns="http://www.w3.org/2000/svg">
<g clip-path="url(#clip0_78_154)">
<path d="M18.8806 0.5H1.40062C0.98025 0.5 0.640625 0.839625 0.640625 1.26V18.74C0.640625 19.1604 0.98025 19.5 1.40062 19.5H18.8806C19.301 19.5 19.6406 19.1604 19.6406 18.74V1.26C19.6406 0.839625 19.301 0.5 18.8806 0.5ZM16.6861 6.04562H15.1685C13.9786 6.04562 13.7483 6.61087 13.7483 7.44212V9.27325H16.5887L16.2183 12.1399H13.7483V19.5H10.7866V12.1423H8.3095V9.27325H10.7866V7.1595C10.7866 4.70612 12.2852 3.369 14.475 3.369C15.5247 3.369 16.4249 3.44738 16.6885 3.483V6.04562H16.6861Z" fill="white"/>
</g>
<defs>
<clipPath id="clip0_78_154">
<rect width="20" height="20" fill="white"/>
</clipPath>
</defs>
</svg>
