<svg width="20" height="20" viewBox="0 0 20 20" fill="none" xmlns="http://www.w3.org/2000/svg">
<path d="M17.8799 8.46166C17.9824 9.01083 18.0382 9.58499 18.0382 10.1842C18.0382 14.8708 14.9015 18.2033 10.164 18.2033C9.08666 18.2037 8.01978 17.9917 7.02436 17.5796C6.02893 17.1674 5.12448 16.5632 4.36266 15.8014C3.60085 15.0395 2.99661 14.1351 2.58447 13.1397C2.17233 12.1442 1.96037 11.0774 1.96069 9.99999C1.96037 8.92262 2.17233 7.85575 2.58447 6.86033C2.99661 5.8649 3.60085 4.96044 4.36266 4.19863C5.12448 3.43681 6.02893 2.83257 7.02436 2.42043C8.01978 2.00829 9.08666 1.79633 10.164 1.79666C12.379 1.79666 14.2299 2.61166 15.6499 3.93499L13.3374 6.24749V6.24166C12.4765 5.42166 11.384 5.00083 10.164 5.00083C7.45736 5.00083 5.25736 7.28749 5.25736 9.99499C5.25736 12.7017 7.45736 14.9933 10.164 14.9933C12.6199 14.9933 14.2915 13.5892 14.6349 11.6608H10.164V8.46166H17.8807H17.8799Z" fill="white"/>
</svg>
